<svg preserveAspectRatio="xMidYMid meet" width="100%" height="100%" overflow="visible" style="display: block;" viewBox="0 0 17.2803 17.2835" fill="none" xmlns="http://www.w3.org/2000/svg">
<g id="Group">
<path id="Vector" fill-rule="evenodd" clip-rule="evenodd" d="M8.6385 0C7.86923 1.88606 7.40524 3.11976 6.54875 4.94975C7.07388 5.50639 7.71846 6.15463 8.76525 6.88675C7.63985 6.42365 6.87219 5.95872 6.2985 5.47625C5.20236 7.76351 3.48503 11.0216 0 17.2835C2.73911 15.7022 4.86242 14.7273 6.84125 14.3553C6.75628 13.9898 6.70797 13.5945 6.71125 13.182L6.7145 13.0942C6.75797 11.3394 7.67085 9.98987 8.75225 10.0815C9.83365 10.1731 10.6742 11.6709 10.6308 13.4258C10.6226 13.756 10.5853 14.0736 10.5203 14.3683C12.4776 14.7511 14.5782 15.7236 17.2803 17.2835C16.7475 16.3026 16.2719 15.4184 15.8178 14.5763C15.1024 14.0218 14.3563 13.3002 12.8343 12.519C13.8804 12.7908 14.6294 13.1044 15.2133 13.455C10.5958 4.85817 10.2219 3.71583 8.6385 0Z" fill="var(--fill-0, black)"/>
</g>
</svg>
