<svg preserveAspectRatio="xMidYMid meet" width="100%" height="100%" overflow="visible" style="display: block;" viewBox="0 0 18 18" fill="none" xmlns="http://www.w3.org/2000/svg">
<g id="icon/facebook" clip-path="url(#clip0_0_11)">
<path id="Vector" d="M18 9.05475C18 4.0845 13.9702 0.05475 9 0.05475C4.02975 0.05475 0 4.0845 0 9.05475C0 13.5473 3.291 17.2703 7.59375 17.9453V11.6565H5.3085V9.054H7.59375V7.0725C7.59375 4.81725 8.93775 3.57075 10.9935 3.57075C11.9775 3.57075 13.008 3.747 13.008 3.747V5.96175H11.8725C10.7542 5.96175 10.4055 6.6555 10.4055 7.36725V9.05475H12.9015L12.5025 11.6573H10.4055V17.946C14.709 17.2703 18 13.5465 18 9.05475Z" fill="var(--fill-0, black)"/>
</g>
<defs>
<clipPath id="clip0_0_11">
<rect width="18" height="18" fill="white"/>
</clipPath>
</defs>
</svg>
