<svg xmlns="http://www.w3.org/2000/svg" viewBox="0 0 18 18">
  <circle cx="9" cy="9" r="9" fill="#e9e9e9"/>
  <g transform="translate(2,12.4921) scale(0.0106,-0.0106)"><path d="M327.22 670Q417.26 670 485.01 639.06Q552.76 608.12 600.84 547.48L523.58 458.24Q482.78 510.46 434.38 534.49Q385.98 558.52 322.26 558.52Q279.52 558.52 252.24 547.70Q224.96 536.88 212.57 519.03Q200.18 501.18 200.18 478.54Q200.18 452.28 220.85 433.57Q241.52 414.86 293.08 402.90L416.32 375.08Q513.60 353.32 556.42 309.87Q599.24 266.42 599.24 196.96Q599.24 131.84 564.89 85.30Q530.54 38.76 469.93 14.38Q409.32 -10 329.66 -10Q261.08 -10 203.35 6.46Q145.62 22.92 100.92 51.93Q56.22 80.94 25.90 118.52L104.26 212.00Q127.06 179.70 161.24 154.69Q195.42 129.68 238.49 115.58Q281.56 101.48 330.10 101.48Q370.84 101.48 399.41 110.75Q427.98 120.02 442.47 137.68Q456.96 155.34 456.96 180.46Q456.96 205.62 439.57 224.09Q422.18 242.56 374.82 253.28L240.72 283.34Q182.76 296.58 141.27 319.37Q99.78 342.16 78.15 377.56Q56.52 412.96 56.52 462.22Q56.52 520.92 88.68 567.89Q120.84 614.86 181.66 642.43Q242.48 670 327.22 670Z" fill="black"/></g>
  <g transform="translate(8.8148,12.4921) scale(0.0106,-0.0106)"><path d="M654.64 660 352.96 317.12 341.72 328.44 176.88 140.98 156.36 269.12 495.30 660ZM224.10 660V0H85.96V660ZM391.36 432.34 663.34 0H504.64L285.46 355.42Z" fill="black"/></g>
</svg>
