<svg preserveAspectRatio="xMidYMid meet" width="100%" height="100%" overflow="visible" style="display: block;" viewBox="0 0 18 18" fill="none" xmlns="http://www.w3.org/2000/svg">
<g id="icon/github" clip-path="url(#clip0_0_17)">
<path id="Vector" d="M9 0.22275C4.0275 0.22275 0 4.2525 0 9.22275C0 13.2 2.5785 16.5727 6.15375 17.7615C6.60375 17.8462 6.76875 17.568 6.76875 17.3287C6.76875 17.115 6.76125 16.5487 6.7575 15.7987C4.254 16.3417 3.726 14.5912 3.726 14.5912C3.3165 13.5525 2.72475 13.275 2.72475 13.275C1.9095 12.717 2.78775 12.7282 2.78775 12.7282C3.6915 12.7912 4.16625 13.6552 4.16625 13.6552C4.96875 15.0315 6.273 14.634 6.7875 14.4037C6.8685 13.8217 7.10025 13.425 7.3575 13.2C5.35875 12.9712 3.25725 12.1995 3.25725 8.75175C3.25725 7.7685 3.609 6.966 4.18425 6.336C4.09125 6.10875 3.783 5.193 4.272 3.954C4.272 3.954 5.028 3.7125 6.74775 4.8765C7.47159 4.60152 8.22913 4.42519 9 4.35225C9.765 4.356 10.5352 4.45575 11.2545 4.65525C12.9727 3.49125 13.7272 3.73275 13.7272 3.73275C14.217 4.9725 13.9087 5.88825 13.8157 6.11475C14.3932 6.74475 14.742 7.548 14.742 8.5305C14.742 11.9872 12.6367 12.7485 10.6328 12.9712C10.9553 13.2502 11.25 13.7977 11.25 14.6377C11.25 15.8422 11.2395 16.8112 11.2395 17.1075C11.2395 17.349 11.4015 17.628 11.8582 17.5395C15.4238 16.569 18 13.194 18 9.22275C18 4.2525 13.9702 0.22275 9 0.22275Z" fill="var(--fill-0, black)"/>
</g>
<defs>
<clipPath id="clip0_0_17">
<rect width="18" height="18" fill="white"/>
</clipPath>
</defs>
</svg>
