<svg preserveAspectRatio="xMidYMid meet" width="100%" height="100%" overflow="visible" style="display: block;" viewBox="0 0 18 18" fill="none" xmlns="http://www.w3.org/2000/svg">
<g id="icon/linkedin" clip-path="url(#clip0_0_23)">
<path id="Vector" d="M15.3353 15.339H12.6697V11.1623C12.6697 10.1663 12.6495 8.8845 11.2808 8.8845C9.891 8.8845 9.67875 9.96825 9.67875 11.0887V15.339H7.01325V6.75H9.57375V7.92075H9.60825C9.966 7.24575 10.836 6.53325 12.1357 6.53325C14.8365 6.53325 15.336 8.31075 15.336 10.6245L15.3353 15.339ZM4.00275 5.57475C3.79941 5.57485 3.59804 5.53485 3.41018 5.45703C3.22232 5.37922 3.05164 5.26511 2.90793 5.12126C2.76421 4.97741 2.65028 4.80662 2.57265 4.61868C2.49501 4.43075 2.4552 4.22934 2.4555 4.026C2.45565 3.71983 2.54658 3.42059 2.7168 3.1661C2.88702 2.91162 3.12888 2.71333 3.4118 2.5963C3.69472 2.47927 4.00598 2.44877 4.30624 2.50864C4.60649 2.56852 4.88224 2.71608 5.09863 2.93268C5.31502 3.14928 5.46232 3.42517 5.5219 3.72549C5.58149 4.0258 5.55068 4.33703 5.43338 4.61984C5.31608 4.90264 5.11755 5.14431 4.8629 5.31428C4.60825 5.48425 4.30892 5.5749 4.00275 5.57475ZM5.33925 15.339H2.66625V6.75H5.33925V15.339ZM16.6688 0H1.32825C0.594 0 0 0.5805 0 1.29675V16.7032C0 17.4202 0.594 18 1.32825 18H16.6665C17.4 18 18 17.4202 18 16.7032V1.29675C18 0.5805 17.4 0 16.6688 0Z" fill="var(--fill-0, black)"/>
</g>
<defs>
<clipPath id="clip0_0_23">
<rect width="18" height="18" fill="white"/>
</clipPath>
</defs>
</svg>
