<svg preserveAspectRatio="xMidYMid meet" width="100%" height="100%" overflow="visible" style="display: block;" viewBox="0 0 18 18" fill="none" xmlns="http://www.w3.org/2000/svg">
<g id="icon/instagram" clip-path="url(#clip0_0_21)">
<g id="Vector">
<path d="M13.3245 0H4.6755C2.09329 0 0 2.09329 0 4.6755V13.3245C0 15.9067 2.09329 18 4.6755 18H13.3245C15.9067 18 18 15.9067 18 13.3245V4.6755C18 2.09329 15.9067 0 13.3245 0Z" fill="black"/>
<path d="M12.5239 8.49175C12.5069 6.53077 11.4439 5.34906 9.64811 5.34906C8.44942 5.34906 7.44138 5.8912 6.912 6.75524L8.07251 7.56425C8.37323 7.08986 8.78829 6.69596 9.55065 6.69596C10.4105 6.69596 10.8552 7.17458 10.9823 8.06404C10.5672 8.00054 10.152 7.96665 9.72429 7.96665C7.40324 7.96665 6.31055 9.01698 6.31055 10.4062C6.31055 11.8208 7.40324 12.6509 9.01276 12.6509C10.7789 12.6509 11.8336 11.4608 12.2656 9.98684C12.7145 10.1902 13.0237 10.6645 13.0237 11.376C13.0237 13.282 10.8255 14.3197 8.96193 14.3197C6.21313 14.3197 4.41731 12.5154 4.41731 9.58029C4.41731 5.9844 6.79338 3.68033 9.98691 3.68033C12.13 3.68033 13.1889 4.62059 13.9089 5.88277L15.0948 5.05262C14.3113 3.41775 12.562 2.24877 9.93607 2.24877C5.75146 2.24877 2.90524 5.21782 2.90524 9.52523C2.90524 13.4642 5.69215 15.7513 9.01273 15.7513C11.7573 15.7513 14.5315 14.1503 14.5315 11.41C14.5315 9.97843 13.7098 9.02967 12.5239 8.49178V8.49175ZM8.96189 11.2236C8.35625 11.2236 7.82251 10.9356 7.82251 10.4061C7.82251 9.57178 8.84756 9.31767 9.85134 9.31767C10.2325 9.31767 10.6053 9.34305 10.9356 9.41505C10.6984 10.4993 9.99538 11.2236 8.96189 11.2236V11.2236Z" fill="var(--fill-0, white)"/>
</g>
</g>
<defs>
<clipPath id="clip0_0_21">
<rect width="18" height="18" fill="white"/>
</clipPath>
</defs>
</svg>
