<svg preserveAspectRatio="xMidYMid meet" width="100%" height="100%" overflow="visible" style="display: block;" viewBox="0 0 18.0011 13.7692" fill="none" xmlns="http://www.w3.org/2000/svg">
<g id="Group">
<path id="Vector" d="M14.4257 7.72516e-08C14.9857 5.97509e-05 15.494 0.192972 15.9031 0.417052C16.3174 0.643988 16.6869 0.934384 16.986 1.20393C17.2877 1.47594 17.5378 1.7448 17.7116 1.94453C17.7991 2.04508 17.8692 2.12981 17.9183 2.19092C17.9428 2.22151 17.9623 2.2463 17.9762 2.26433C17.9832 2.27335 17.9889 2.28077 17.9931 2.2863C17.9952 2.28906 17.9968 2.29147 17.9982 2.29332C17.9989 2.29422 17.9996 2.29497 18.0001 2.29566L18.0005 2.29659C18.0006 2.29677 18.0013 2.29754 17.2356 2.8726L16.4703 3.44769L16.4623 3.43787C16.4546 3.42788 16.4418 3.41138 16.4244 3.38971C16.3895 3.34613 16.336 3.28114 16.2674 3.20223C16.1287 3.04292 15.9332 2.83289 15.704 2.62621C15.4719 2.41706 15.2247 2.22859 14.9834 2.09648C14.7372 1.96154 14.5509 1.91508 14.4252 1.91507C13.9089 1.91512 13.5688 2.12082 13.0904 2.47332C12.6642 2.78732 11.9382 3.40459 10.913 3.40467C9.87886 3.40467 9.07307 2.84785 8.54773 2.50231C7.93192 2.09728 7.61021 1.91508 7.25961 1.91507C6.77231 1.91507 6.25896 2.20295 5.79571 2.62388C5.57768 2.82201 5.40062 3.02291 5.27814 3.17464C5.21752 3.24975 5.17169 3.31109 5.14255 3.35137C5.12802 3.37147 5.11753 3.3864 5.11169 3.39486C5.10984 3.39755 5.10841 3.39957 5.10749 3.40093C5.10436 3.39858 5.05515 3.36537 4.30892 2.8726C3.50987 2.34497 3.51018 2.34454 3.51035 2.34428L3.51128 2.34287C3.51186 2.34201 3.51242 2.34071 3.51315 2.3396C3.51464 2.33738 3.51664 2.3348 3.51876 2.33166C3.523 2.32537 3.52837 2.31714 3.53512 2.30734C3.54864 2.28776 3.56743 2.26153 3.59077 2.22926C3.63736 2.16484 3.70343 2.07642 3.7876 1.97212C3.95489 1.76483 4.19936 1.4868 4.50809 1.20627C5.09866 0.669673 6.06086 7.72516e-08 7.25961 7.72516e-08C8.28069 7.66094e-06 9.08311 0.562577 9.59964 0.902364C10.2067 1.30164 10.5422 1.4896 10.913 1.4896C11.1828 1.48953 11.3701 1.36205 11.9547 0.931351C12.4871 0.539106 13.2561 -4.43524e-05 14.4257 7.72516e-08Z" fill="var(--fill-0, black)"/>
<path id="Vector_2" d="M12.2852 4.1939H15.0812L12.7447 13.7692H9.71891L7.63151 7.25801L5.62069 13.7692H2.59488L0 0.478768L2.63322 7.45058e-08L4.3088 10.4179L6.36757 4.1939H8.97203L11.251 10.4179L12.2852 4.1939Z" fill="var(--fill-0, black)"/>
</g>
</svg>
